<?xml version="1.0"?>
<svg width="640" height="480" xmlns="http://www.w3.org/2000/svg" xmlns:svg="http://www.w3.org/2000/svg">
 <!-- Created with SVG-edit - https://github.com/SVG-Edit/svgedit-->

 <g class="layer">
  <title>Layer 1</title>

  <g id="svg_12" transform="matrix(2.32062 0 0 2.32062 1013.96 -42.2824)">
   <path id="svg_14" d="m-415.5,108.3c-1.47,0 -2.66,1.18 -2.66,2.65c0,1.47 1.19,2.65 2.66,2.65l216.68,0c1.47,0 2.65,-1.18 2.65,-2.65c0,-1.47 -1.18,-2.65 -2.65,-2.65l-216.68,0zm0,12.8c-1.47,0 -2.66,1.19 -2.66,2.65c0,1.47 1.19,2.66 2.66,2.66l216.68,0c1.47,0 2.65,-1.19 2.65,-2.66c0,-1.46 -1.18,-2.65 -2.65,-2.65l-216.68,0zm0,12.8c-1.47,0 -2.66,1.19 -2.66,2.65c0,1.47 1.19,2.66 2.66,2.66l216.68,0c1.47,0 2.65,-1.19 2.65,-2.66c0,-1.46 -1.18,-2.65 -2.65,-2.65l-216.68,0zm0,12.8c-1.47,0 -2.66,1.19 -2.66,2.65c0,1.47 1.19,2.66 2.66,2.66l216.68,0c1.47,0 2.65,-1.19 2.65,-2.66c0,-1.46 -1.18,-2.65 -2.65,-2.65l-216.68,0zm0,12.8c-1.47,0 -2.66,1.19 -2.66,2.66c0,1.46 1.19,2.65 2.66,2.65l216.68,0c1.47,0 2.65,-1.19 2.65,-2.65c0,-1.47 -1.18,-2.66 -2.65,-2.66l-216.68,0z" stroke-width="0.2" fill="#1a9859"/>
   <path id="svg_13" d="m-274.25,20.19l-107.83,157.87c-3.83,5.6 -7.21,9.22 -12.8,12.1c-4.54,2.34 -9.69,2.57 -19.97,2.57l0,31.2l90,0l0,-31.2c-5.37,0 -15.36,-0.42 -15.36,-6.99c0,-1.84 1.41,-4.22 1.97,-5.05l72.98,-107.52l0,35.13l42.8,0l-0.16,-88.11l-6.68,0l0,0l-44.95,0zm8.99,144.62l0,10.57c0,6.82 -2.98,12.56 -8.29,14.71c-5.59,2.25 -12.6,2.64 -14.96,2.64l0,31.2l89.41,0l0,-31.2c-2.36,0 -9.37,-0.39 -14.95,-2.64c-5.32,-2.15 -8.28,-7.89 -8.29,-14.71l-0.02,-10.57l-42.9,0z" stroke-width="0.2" fill="#f1660b"/>
  </g>
 </g>
</svg>